<svg width="24" height="24" viewBox="0 0 24 24" fill="none" xmlns="http://www.w3.org/2000/svg">
    <path d="M19.5767 6.75H4.41927C4.2347 6.75 4.05661 6.81806 3.91908 6.94115C3.78155 7.06425 3.69424 7.23373 3.67386 7.41718L2.34052 19.4172C2.32888 19.522 2.33947 19.6281 2.37162 19.7286C2.40377 19.829 2.45675 19.9216 2.52709 20.0002C2.59744 20.0788 2.68357 20.1417 2.77987 20.1847C2.87616 20.2278 2.98046 20.25 3.08594 20.25H20.91C21.0155 20.25 21.1198 20.2278 21.2161 20.1847C21.3124 20.1417 21.3985 20.0788 21.4689 20.0002C21.5392 19.9216 21.5922 19.829 21.6244 19.7286C21.6565 19.6281 21.6671 19.522 21.6555 19.4172L20.3221 7.41718C20.3017 7.23373 20.2144 7.06425 20.0769 6.94115C19.9394 6.81806 19.7613 6.75 19.5767 6.75Z" stroke="#1D1D1D" stroke-width="1.5" stroke-linecap="round" stroke-linejoin="round"></path>
    <path d="M8.24988 6.75C8.24988 5.75544 8.64497 4.80161 9.34823 4.09835C10.0515 3.39509 11.0053 3 11.9999 3C12.9944 3 13.9483 3.39509 14.6515 4.09835C15.3548 4.80161 15.7499 5.75544 15.7499 6.75" stroke="#1D1D1D" stroke-width="1.5" stroke-linecap="round" stroke-linejoin="round"></path>
</svg>