<svg width="27" height="28" viewBox="0 0 27 28" fill="none" xmlns="http://www.w3.org/2000/svg">
<path fill-rule="evenodd" clip-rule="evenodd" d="M3.85333 0.000619338H21.48C23.5613 -0.0366526 25.2824 1.61299 25.3333 3.69395V11.694C24.7276 11.0946 24.0409 10.583 23.2933 10.174C19.8051 8.31606 15.5372 8.76872 12.5163 11.317C9.49532 13.8653 8.32988 17.9958 9.57333 21.7473C9.8313 22.5456 10.1993 23.304 10.6667 24.0006H3.85333C1.76699 24.0378 0.0437531 22.3802 0 20.294V3.70729C0.0437531 1.62107 1.76699 -0.0365766 3.85333 0.000619338ZM6.66655 8.00059H18.6666C19.4029 8.00059 19.9999 7.40363 19.9999 6.66725C19.9999 5.93087 19.4029 5.33392 18.6666 5.33392H6.66655C5.93017 5.33392 5.33322 5.93087 5.33322 6.66725C5.33322 7.40363 5.93017 8.00059 6.66655 8.00059Z" fill="#D3C48F"/>
<path d="M12.2399 24.0007C11.5875 23.212 11.0899 22.3072 10.7732 21.334L12.2399 24.0007Z" fill="#D3C48F"/>
<path d="M25.3334 13.6406L22.6667 11.3473C23.7082 11.914 24.6172 12.6957 25.3334 13.6406Z" fill="#D3C48F"/>
<path d="M10.7732 21.334L12.2399 24.0007C11.5875 23.212 11.0899 22.3072 10.7732 21.334H10.7732Z" fill="#D3C48F"/>
<path d="M25.3334 13.6406L22.6667 11.3473C23.7082 11.914 24.6172 12.6957 25.3334 13.6406Z" fill="#D3C48F"/>
<path fill-rule="evenodd" clip-rule="evenodd" d="M22.6665 11.3473L25.3331 13.6406C24.6169 12.6957 23.7079 11.914 22.6665 11.3473ZM10.7732 21.3339C11.0899 22.3071 11.5875 23.2119 12.2399 24.0006L10.7732 21.3339Z" fill="#D3C48F"/>
<path fill-rule="evenodd" clip-rule="evenodd" d="M22.6668 11.3472L25.3335 13.6405C26.4297 15.0856 27.0158 16.8534 27.0001 18.6672C27.0121 22.188 24.8101 25.3365 21.4988 26.533C18.1874 27.7295 14.4814 26.7158 12.2401 24.0005L10.7735 21.3339C9.9145 18.7908 10.3331 15.9896 11.898 13.8088C13.463 11.628 15.9826 10.3344 18.6668 10.3339C20.0634 10.3355 21.4378 10.6837 22.6668 11.3472ZM22.6691 18.9863C22.6786 19.044 22.6779 19.103 22.6668 19.1605C22.6018 19.3194 22.5068 19.4643 22.3868 19.5872L19.7202 22.2538C19.4698 22.5062 19.129 22.6482 18.7735 22.6482C18.418 22.6482 18.0772 22.5062 17.8268 22.2538C17.5744 22.0035 17.4324 21.6627 17.4324 21.3072C17.4324 20.9516 17.5744 20.6108 17.8268 20.3605L18.2135 19.9738H16.0002C15.2638 19.9738 14.6668 19.3769 14.6668 18.6405C14.6668 17.9041 15.2638 17.3072 16.0002 17.3072H18.1068L17.7202 16.9205C17.1973 16.3977 17.1973 15.55 17.7202 15.0272C18.243 14.5043 19.0907 14.5043 19.6135 15.0272L22.2802 17.6938C22.4001 17.8167 22.4952 17.9616 22.5602 18.1205C22.572 18.1821 22.572 18.2455 22.5602 18.3072C22.666 18.5169 22.704 18.7542 22.6691 18.9863Z" fill="#D3C48F"/>
</svg>
