<svg width="16" height="16" viewBox="0 0 16 16" fill="none" xmlns="http://www.w3.org/2000/svg">
<path d="M14.3675 2.3444L10.2468 14.2485C10.208 14.3606 10.1348 14.4576 10.0376 14.5256C9.94033 14.5935 9.82411 14.629 9.7055 14.627C9.5869 14.6249 9.47198 14.5854 9.37717 14.5141C9.28237 14.4428 9.21253 14.3433 9.17765 14.23L7.52139 8.84715C7.49441 8.75946 7.44639 8.6797 7.38152 8.61482C7.31664 8.54995 7.23688 8.50193 7.14919 8.47495L1.76637 6.81869C1.65299 6.78381 1.55354 6.71397 1.48224 6.61917C1.41094 6.52436 1.37144 6.40944 1.36938 6.29084C1.36732 6.17223 1.40281 6.05601 1.47077 5.95879C1.53873 5.86156 1.63569 5.78832 1.74779 5.74951L13.6519 1.62885C13.7517 1.59432 13.8591 1.58855 13.962 1.61221C14.0649 1.63588 14.159 1.68801 14.2337 1.76265C14.3083 1.8373 14.3605 1.93144 14.3841 2.03431C14.4078 2.13719 14.402 2.24465 14.3675 2.3444V2.3444Z" stroke="#1D1D1D" stroke-width="1.5" stroke-linecap="round" stroke-linejoin="round"/>
</svg>
