<svg width="390" height="41" viewBox="0 0 390 41" fill="none" xmlns="http://www.w3.org/2000/svg">
<path fill-rule="evenodd" clip-rule="evenodd" d="M197.122 39.6047L199.173 34.5126C199.385 33.8761 200.233 33.3811 200.941 33.3811C201.648 33.3811 202.072 33.8761 201.789 34.5126L199.738 39.6047C199.526 40.2412 198.678 40.7363 197.97 40.7363C197.263 40.7363 196.909 40.2412 197.122 39.6047ZM227.462 35.7857H250.376H270.037L389.204 36.7051C390.265 36.7051 390.265 37.483 389.204 37.483L270.037 38.4024H253.912H223.855H202.284L203.345 35.7857H227.462ZM162.609 38.4024H139.695H119.963L0.79563 37.483C-0.26521 37.483 -0.26521 36.7051 0.79563 36.7051L119.963 35.7857H136.088H166.145H187.716L186.655 38.4024H162.609ZM192.666 39.6047L194.717 34.5126C194.929 33.8761 195.778 33.3811 196.485 33.3811C197.192 33.3811 197.617 33.8761 197.334 34.5126L195.283 39.6047C195.071 40.2412 194.222 40.7363 193.515 40.7363C192.808 40.7363 192.383 40.2412 192.666 39.6047ZM188.211 39.6047L190.262 34.5126C190.474 33.8761 191.322 33.3811 192.03 33.3811C192.737 33.3811 193.161 33.8761 192.878 34.5126L190.827 39.6047C190.615 40.2412 189.767 40.7363 189.059 40.7363C188.352 40.7363 187.928 40.2412 188.211 39.6047Z" fill="#E1C67D"/>
<path fill-rule="evenodd" clip-rule="evenodd" d="M49.668 0.070727C53.6285 0.070727 56.9525 1.13157 59.5692 3.25325C62.1859 5.37493 63.5297 8.20382 63.5297 11.5985C63.5297 14.781 62.3274 17.4685 59.8521 19.7316C57.3768 21.9947 53.9821 23.1263 49.668 23.1263C45.6368 23.1263 42.3129 22.0655 39.6961 19.9438C37.0794 17.8221 35.7357 14.9932 35.7357 11.5278C35.7357 8.34526 36.938 5.6578 39.4133 3.39468C41.8885 1.20228 45.2832 0.070727 49.668 0.070727ZM49.7388 2.61675C46.8391 2.61675 44.5053 3.46541 42.6665 5.02131C40.8984 6.57721 39.979 8.62817 39.979 11.1035C39.979 13.8616 40.8277 16.1248 42.6665 17.8928C44.4346 19.6609 46.7684 20.5803 49.5973 20.5803C52.4969 20.5803 54.8308 19.8023 56.5989 18.1757C58.4376 16.6198 59.2863 14.5689 59.2863 12.0936C59.2863 9.33539 58.3669 7.07226 56.5989 5.3042C54.8308 3.53613 52.4969 2.61675 49.7388 2.61675ZM89.6971 0.919386V4.80913C88.7069 4.24335 87.5754 3.74831 86.3731 3.32397C85.1708 2.97036 83.8978 2.75818 82.5541 2.75818C80.008 2.75818 77.8157 3.46541 75.9061 4.95058C73.9966 6.36504 73.0772 8.41599 73.0772 10.962C73.0772 13.8616 73.9966 16.1955 75.9061 17.9635C77.8157 19.6609 80.2909 20.5803 83.4027 20.5803C85.1708 20.5803 86.7974 20.3681 88.2119 20.0145C89.6263 19.6609 90.8286 19.0244 91.8895 18.2464L89.4142 22.4898C88.3533 22.7727 87.3632 22.9849 86.3731 23.0556C85.383 23.197 84.3221 23.2677 83.1199 23.2677C78.5936 23.2677 75.1282 22.2069 72.5822 20.0852C70.0362 17.9635 68.8339 15.2054 68.8339 11.8814C68.8339 8.62815 70.1069 5.86998 72.5822 3.60686C75.0575 1.34373 78.5229 0.141454 82.9077 0.141454C83.6149 0.141454 84.2514 0.141437 84.9586 0.212159C85.5951 0.282882 86.5145 0.424332 87.6461 0.636499C88.1412 0.777945 88.4948 0.84868 88.7777 0.84868C89.0606 0.84868 89.4142 0.848663 89.6971 0.919386ZM117.35 0.919386V4.80913C116.359 4.24335 115.228 3.74831 114.026 3.32397C112.823 2.97036 111.55 2.75818 110.207 2.75818C107.661 2.75818 105.468 3.46541 103.559 4.95058C101.649 6.36504 100.73 8.41599 100.73 10.962C100.73 13.8616 101.649 16.1955 103.559 17.9635C105.468 19.6609 107.944 20.5803 111.055 20.5803C112.823 20.5803 114.45 20.3681 115.864 20.0145C117.279 19.6609 118.481 19.0244 119.542 18.2464L117.067 22.4898C116.006 22.7727 115.016 22.9849 114.026 23.0556C113.036 23.197 111.975 23.2677 110.772 23.2677C106.246 23.2677 102.781 22.2069 100.235 20.0852C97.7594 17.9635 96.4864 15.2054 96.4864 11.8814C96.4864 8.62815 97.7594 5.86998 100.235 3.60686C102.71 1.34373 106.175 0.141454 110.56 0.141454C111.267 0.141454 111.904 0.141437 112.611 0.212159C113.248 0.282882 114.167 0.424332 115.299 0.636499C115.794 0.777945 116.147 0.84868 116.43 0.84868C116.713 0.84868 117.067 0.848663 117.35 0.919386ZM129.019 9.26467H133.474C134.04 6.43576 135.455 4.17264 137.859 2.47529C140.264 0.848672 143.093 0 146.346 0C150.094 0 153.277 1.06084 155.752 3.18252C158.227 5.3042 159.5 8.13309 159.5 11.5278C159.5 14.7103 158.298 17.3978 155.964 19.6609C153.63 21.924 150.377 23.0556 146.346 23.0556C142.527 23.0556 139.415 21.9947 136.869 19.8731C134.394 17.7514 133.121 14.9932 133.121 11.6692H128.948V19.378C128.948 20.2267 129.09 20.8632 129.302 21.3582C129.585 21.7826 130.009 22.2069 130.575 22.5605H123.432C123.998 22.2069 124.422 21.7826 124.705 21.3582C124.988 20.9339 125.129 20.2267 125.129 19.378V3.53613C125.129 2.68746 124.988 2.05095 124.705 1.62661C124.422 1.20228 123.998 0.777949 123.432 0.353613H130.716C130.08 0.707226 129.655 1.13155 129.443 1.62661C129.16 2.05095 129.09 2.68746 129.09 3.53613V9.26467H129.019ZM146.487 2.61675C143.729 2.61675 141.537 3.46541 139.91 5.02131C138.284 6.57721 137.435 8.62817 137.435 11.1035C137.435 13.8616 138.213 16.1248 139.91 17.8928C141.607 19.6609 143.729 20.5803 146.346 20.5803C148.963 20.5803 151.155 19.8023 152.852 18.1757C154.55 16.5491 155.398 14.5689 155.398 12.0936C155.398 9.33539 154.55 7.07226 152.923 5.3042C151.155 3.53613 149.033 2.61675 146.487 2.61675ZM163.602 0.495067L173.362 0.353613C175.484 0.353613 177.252 0.777945 178.595 1.69734C179.939 2.61673 180.646 3.81903 180.646 5.37493C180.646 6.43576 180.293 7.35515 179.656 8.1331C179.02 8.91105 178.03 9.47683 176.827 9.90117C178.666 10.1133 180.151 10.7499 181.354 11.8107C182.485 12.8715 183.122 14.2152 183.122 15.8419C183.122 17.8928 182.202 19.5902 180.505 20.8632C178.808 22.1362 176.12 22.7727 172.513 22.7727H163.673C164.239 22.4191 164.663 21.9947 164.946 21.4997C165.229 21.0046 165.37 20.3681 165.37 19.5902V3.74829C165.37 2.97034 165.229 2.33385 164.946 1.83879C164.663 1.34373 164.239 0.919403 163.602 0.495067ZM169.048 2.89963V9.3354H171.028C172.584 9.40612 173.857 9.05249 174.918 8.41599C175.908 7.77949 176.474 6.8601 176.474 5.72854C176.474 4.73842 176.049 3.96046 175.201 3.39468C174.352 2.8289 173.221 2.61675 171.877 2.61675C171.523 2.61675 171.099 2.68745 170.604 2.68745C170.109 2.8289 169.543 2.82891 169.048 2.89963ZM169.048 11.5278V20.0852C169.684 20.1559 170.321 20.2974 170.957 20.2974C171.594 20.3681 172.23 20.3681 172.796 20.3681C174.776 20.3681 176.262 20.0145 177.252 19.2366C178.242 18.4586 178.808 17.3978 178.808 15.9833C178.808 14.6396 178.242 13.5787 177.11 12.6593C175.979 11.8107 174.281 11.3863 172.018 11.3863C171.735 11.3863 171.382 11.3864 170.887 11.4571C170.392 11.5278 169.826 11.5278 169.048 11.5278ZM187.86 0.495067H201.934V4.17263C201.51 3.7483 201.014 3.46541 200.378 3.25325C199.812 3.1118 199.034 2.97036 198.115 2.97036L193.235 3.04106V9.4061H198.398C198.61 9.4061 198.822 9.4061 199.034 9.4061C199.246 9.4061 199.459 9.3354 199.671 9.3354V12.8008C199.317 12.5179 198.964 12.3057 198.539 12.1643C198.115 12.0229 197.549 11.9521 196.983 11.9521H193.235V19.9438C194.013 20.0145 194.791 20.0852 195.569 20.0852C196.347 20.0852 197.125 20.156 197.903 20.156C199.6 20.156 201.085 20.0145 202.217 19.7316C203.419 19.4487 204.48 18.9537 205.399 18.1757L203.561 22.6312H187.719C188.284 22.2776 188.709 21.8533 188.992 21.3582C189.275 20.8632 189.416 20.2267 189.416 19.4487V3.60686C189.416 2.82891 189.275 2.1924 188.992 1.76807C188.85 1.34373 188.426 0.919403 187.86 0.495067ZM228.808 3.67759V19.5195C228.808 20.2974 228.879 20.9339 229.162 21.429C229.445 21.924 229.869 22.3484 230.506 22.702H223.363C223.929 22.3484 224.353 21.924 224.636 21.429C224.919 20.9339 225.06 20.2974 225.06 19.5195V3.04106H217.917V6.50649C217.917 12.7301 217.281 17.0442 216.078 19.4487C214.805 21.924 212.967 23.1263 210.562 23.1263C210.208 23.1263 209.926 23.1263 209.643 23.0556C209.36 22.9849 209.077 22.9141 208.794 22.8434L208.299 19.1658C208.653 19.4487 209.006 19.7316 209.43 19.8731C209.784 20.0145 210.208 20.0852 210.633 20.0852C212.047 20.0852 213.108 18.8829 213.815 16.4784C214.523 14.0738 214.876 10.8206 214.876 6.78938C214.876 4.45553 214.664 2.89962 214.24 2.05095C213.815 1.20228 213.179 0.707226 212.189 0.353613H230.718C230.081 0.707226 229.657 1.13155 229.374 1.62661C228.95 2.19239 228.808 2.82891 228.808 3.67759ZM239.417 18.4586L252.288 1.76807C252.501 1.48518 252.713 1.20228 252.925 1.06084C253.137 0.919394 253.349 0.707218 253.561 0.565772H258.724C258.088 0.919386 257.663 1.34373 257.451 1.83879C257.168 2.26313 257.098 2.89962 257.098 3.74829V19.5902C257.098 20.4389 257.239 21.0753 257.451 21.5704C257.734 21.9947 258.158 22.4191 258.724 22.7727H251.581C252.147 22.4191 252.571 21.9947 252.854 21.5704C253.137 21.1461 253.279 20.4389 253.279 19.5902V4.80913L240.407 21.4997C240.124 21.8533 239.912 22.0655 239.771 22.2776C239.558 22.4191 239.417 22.6313 239.205 22.7727H233.971C234.537 22.4191 234.961 21.9947 235.244 21.5704C235.527 21.1461 235.669 20.4389 235.669 19.5902V3.74829C235.669 2.89962 235.527 2.26313 235.244 1.83879C234.961 1.41446 234.537 0.990108 233.971 0.565772H241.114C240.478 0.919386 240.053 1.34373 239.841 1.83879C239.558 2.26313 239.488 2.89962 239.488 3.74829V18.4586H239.417ZM269.898 22.702H262.19C262.755 22.3484 263.18 21.924 263.463 21.4997C263.745 21.0753 263.887 20.3681 263.887 19.5195V3.67759C263.887 2.89964 263.745 2.26312 263.463 1.76807C263.18 1.27301 262.755 0.84868 262.19 0.495067H271.171C274.283 0.495067 276.546 1.06084 278.031 2.05095C279.517 3.11179 280.224 4.52625 280.224 6.36504C280.224 8.20383 279.446 9.689 277.961 10.8913C276.476 12.0936 274.495 12.7301 272.02 12.6593C271.596 12.6593 271.101 12.6593 270.535 12.5886C269.969 12.5179 269.474 12.4472 268.979 12.3057C271.03 12.235 272.656 11.7399 274 10.8206C275.273 9.90116 275.98 8.62816 275.98 7.00154C275.98 5.72853 275.485 4.6677 274.566 3.96047C273.647 3.25325 272.303 2.82891 270.676 2.82891C270.181 2.82891 269.686 2.89964 269.191 2.97036C268.696 3.04108 268.201 3.1118 267.706 3.18252V19.0244C267.706 19.9438 267.847 20.7217 268.272 21.3582C268.555 21.9947 269.12 22.4191 269.898 22.702ZM295.641 3.04106V19.5195C295.641 20.2974 295.783 20.9339 295.995 21.429C296.278 21.924 296.702 22.3484 297.268 22.702H290.125C290.691 22.3484 291.115 21.924 291.398 21.429C291.681 20.9339 291.822 20.2974 291.822 19.5195V3.04106H287.438C286.66 3.04106 285.882 3.18251 285.316 3.39468C284.679 3.60685 284.114 3.96048 283.619 4.38481L285.104 0.42434C285.457 0.495063 285.74 0.49505 286.023 0.565772C286.306 0.565772 286.801 0.565772 287.438 0.565772H301.653C301.936 0.565772 302.36 0.565772 302.714 0.565772C303.138 0.565772 303.492 0.495067 303.916 0.495067L302.643 4.24336C302.36 3.88975 302.006 3.60685 301.582 3.39468C301.158 3.25323 300.521 3.11179 299.673 3.11179L295.641 3.04106ZM321.455 0.070727C325.416 0.070727 328.74 1.13157 331.427 3.25325C334.044 5.37493 335.388 8.20382 335.388 11.5985C335.388 14.781 334.114 17.4685 331.639 19.7316C329.164 21.9947 325.769 23.1263 321.455 23.1263C317.424 23.1263 314.1 22.0655 311.483 19.9438C308.866 17.8221 307.523 14.9932 307.523 11.5278C307.523 8.34526 308.725 5.6578 311.2 3.39468C313.746 1.20228 317.141 0.070727 321.455 0.070727ZM321.526 2.61675C318.626 2.61675 316.292 3.46541 314.454 5.02131C312.686 6.57721 311.766 8.62817 311.766 11.1035C311.766 13.8616 312.615 16.1248 314.454 17.8928C316.222 19.6609 318.556 20.5803 321.384 20.5803C324.284 20.5803 326.618 19.8023 328.386 18.1757C330.225 16.6198 331.073 14.5689 331.073 12.0936C331.073 9.33539 330.154 7.07226 328.386 5.3042C326.618 3.53613 324.355 2.61675 321.526 2.61675ZM346.774 22.702H339.065C339.631 22.3484 340.055 21.924 340.338 21.4997C340.621 21.0753 340.762 20.3681 340.762 19.5195V3.67759C340.762 2.89964 340.621 2.26312 340.338 1.76807C340.055 1.27301 339.631 0.84868 339.065 0.495067H348.047C351.159 0.495067 353.422 1.06084 354.907 2.05095C356.321 3.11179 357.099 4.52625 357.099 6.36504C357.099 8.20383 356.321 9.689 354.836 10.8913C353.351 12.0936 351.371 12.7301 348.896 12.6593C348.471 12.6593 347.976 12.6593 347.41 12.5886C346.915 12.5179 346.35 12.4472 345.854 12.3057C347.905 12.235 349.532 11.7399 350.876 10.8206C352.149 9.90116 352.856 8.62816 352.856 7.00154C352.856 5.72853 352.361 4.6677 351.442 3.96047C350.522 3.25325 349.178 2.82891 347.552 2.82891C347.057 2.82891 346.562 2.89964 346.067 2.97036C345.572 3.04108 345.077 3.1118 344.581 3.18252V19.0244C344.581 19.9438 344.723 20.7217 345.147 21.3582C345.43 21.9947 345.996 22.4191 346.774 22.702ZM361.06 0.495067H375.275C375.487 0.495067 375.699 0.495067 375.912 0.495067C376.124 0.495067 376.336 0.42434 376.548 0.42434V4.38481C376.124 3.88975 375.558 3.53612 374.851 3.39468C374.144 3.18251 373.012 3.11179 371.385 3.11179C370.749 3.11179 370.042 3.1118 369.193 3.18252C368.344 3.18252 367.425 3.25325 366.435 3.25325V19.5902C366.435 20.3681 366.576 21.0046 366.859 21.4997C367.142 21.9947 367.637 22.4191 368.274 22.702H360.918C361.484 22.3484 361.908 21.924 362.191 21.429C362.474 20.9339 362.616 20.2974 362.616 19.5195V3.67759C362.616 2.89964 362.474 2.26313 362.191 1.83879C362.121 1.34373 361.696 0.919403 361.06 0.495067ZM20.3889 22.702H12.6094C13.1752 22.3484 13.5995 21.924 13.8824 21.4997C14.1653 21.0753 14.3067 20.3681 14.3067 19.5195V3.67759C14.3067 2.89964 14.1653 2.26312 13.8824 1.76807C13.5995 1.27301 13.1752 0.84868 12.6094 0.495067H21.5911C24.7029 0.495067 26.9661 1.06084 28.4512 2.05095C29.8657 3.11179 30.6436 4.52625 30.6436 6.36504C30.6436 8.20383 29.8657 9.689 28.3805 10.8913C26.8954 12.0936 24.9151 12.7301 22.4398 12.6593C22.0155 12.6593 21.5204 12.6593 20.9546 12.5886C20.4596 12.5179 19.8938 12.4472 19.3988 12.3057C21.4497 12.235 23.0763 11.7399 24.4201 10.8206C25.6931 9.90116 26.4003 8.62816 26.4003 7.00154C26.4003 5.72853 25.9052 4.6677 24.9858 3.96047C24.0664 3.25325 22.7227 2.82891 21.0961 2.82891C20.601 2.82891 20.106 2.89964 19.6109 2.97036C19.1159 3.04108 18.6208 3.1118 18.1257 3.18252V19.0244C18.1257 19.9438 18.2672 20.7217 18.6915 21.3582C18.9744 21.9947 19.5402 22.4191 20.3889 22.702Z" fill="#E1C67D"/>
</svg>
