<?xml version="1.0" encoding="UTF-8"?>
<!DOCTYPE svg PUBLIC "-//W3C//DTD SVG 1.1//EN" "http://www.w3.org/Graphics/SVG/1.1/DTD/svg11.dtd">
<!-- Creator: CorelDRAW -->
<svg xmlns="http://www.w3.org/2000/svg" xml:space="preserve" width="180mm" height="30mm" version="1.1" style="shape-rendering:geometricPrecision; text-rendering:geometricPrecision; image-rendering:optimizeQuality; fill-rule:evenodd; clip-rule:evenodd"
viewBox="0 0 18000 3000"
 xmlns:xlink="http://www.w3.org/1999/xlink"
 xmlns:xodm="http://www.corel.com/coreldraw/odm/2003">
 <defs>
  <style type="text/css">
   <![CDATA[
    .fil1 {fill:#898989;fill-rule:nonzero}
    .fil0 {fill:#2B2A29;fill-rule:nonzero}
   ]]>
  </style>
 </defs>
 <g id="Слой_x0020_1">
  <metadata id="CorelCorpID_0Corel-Layer"/>
  <g id="_2766378351312">
   <path class="fil0" d="M3082.1 1100.16c-9.56,-188.5 -82.9,-351.11 -220.01,-487.88 -148.1,-148.1 -326.31,-222.13 -534.64,-222.13 -209.03,0 -387.6,74.03 -535.69,222.13 -28.35,28.34 -53.85,57.4 -76.52,87.16l-116.21 0c34.37,-54.21 75.81,-105.93 124.36,-155.88 166.87,-165.47 368.1,-248.02 604.06,-248.02 234.55,0 435.08,82.91 601.61,249.08 166.51,166.16 249.41,366.69 249.41,601.94 0,235.96 -82.9,437.2 -249.41,603.38 -166.53,165.8 -367.06,249.06 -601.61,249.06 -235.96,0 -437.19,-83.61 -604.06,-250.13 -98.15,-97.79 -167.6,-207.97 -207.62,-331.27l100.61 0c36.85,97.44 95.31,185.66 175.38,264.66 148.09,148.1 326.66,222.15 535.69,222.15 208.33,0 386.54,-74.05 534.64,-222.15 137.11,-137.11 210.45,-300.09 220.01,-488.92l-1022.49 0 0 -93.18 1022.49 0zm768.13 -688.41l0 1567.41 -93.54 0 0 -1567.41 -420.2 0 0 -93.53 933.94 0 0 93.53 -420.2 0zm1454.39 -117.27c235.26,0 435.78,83.26 602.3,249.79 166.53,166.16 249.78,367.04 249.78,602.29 0,235.25 -83.25,436.14 -249.78,602.67 -166.52,166.51 -367.04,249.77 -602.3,249.77 -235.6,0 -436.13,-83.26 -602.66,-249.77 -166.51,-166.53 -249.77,-367.42 -249.77,-602.67 0,-235.25 83.26,-436.13 249.77,-602.29 166.53,-166.53 367.06,-249.79 602.66,-249.79zm0 95.67c-209.03,0 -387.6,73.68 -535.34,221.42 -147.74,147.74 -221.44,326.31 -221.44,534.99 0,209.04 73.7,387.6 221.44,535.7 147.74,148.1 326.31,222.15 535.34,222.15 208.69,0 387.25,-74.05 534.99,-222.15 147.75,-148.1 221.43,-326.66 221.43,-535.7 0,-208.68 -73.68,-387.25 -221.43,-534.99 -147.74,-147.74 -326.3,-221.42 -534.99,-221.42zm1230.82 784.4l0 804.61 -93.18 0 0 -1660.94 93.18 0 0 707.17 530.39 -707.17 120.46 0 -498.16 668.56 643.42 992.38 -115.16 0 -589.55 -917.63 -91.4 113.02zm1138.71 228.53l0 576.08 -93.19 0 0 -1660.94 435.78 0c126.49,17.37 234.19,70.51 322.77,159.08 105.92,105.93 158.73,233.48 158.73,383 0,150.22 -52.81,278.11 -158.73,384.05 -105.93,105.93 -233.48,158.73 -383,158.73l-282.36 0zm0 -990.26l0 895.66 282.36 0c123.3,0 228.52,-43.58 316.03,-131.09 87.51,-87.51 131.45,-193.44 131.45,-317.09 0,-124.01 -43.94,-229.58 -131.45,-316.74 -87.51,-87.16 -192.73,-130.74 -316.03,-130.74l-282.36 0zm1804.79 836.5l-252.98 -696.21 -253.32 696.21 506.3 0zm34.37 93.53l-575.04 0 -231.35 636.31 -99.56 0 618.6 -1699.2 617.54 1699.2 -98.84 0 -231.35 -636.31zm1863.24 371.65l70.5 63.43c-161.91,147.38 -352.53,221.07 -571.83,221.07 -235.25,0 -435.78,-82.9 -601.6,-248.71 -165.8,-165.82 -248.7,-366.35 -248.7,-601.6 0,-234.54 82.9,-434.72 248.7,-600.89 165.82,-166.16 366.35,-249.07 601.6,-249.07 219.3,0 409.92,73.69 571.83,221.08l-70.5 64.13c-142.78,-126.47 -309.66,-189.9 -501.33,-189.9 -208.32,0 -386.18,73.69 -533.57,221.08 -147.39,147.38 -221.09,325.24 -221.09,533.57 0,209.04 73.7,387.25 221.09,534.63 147.39,147.39 325.25,221.09 533.57,221.09 191.67,0 358.55,-63.42 501.33,-189.91zm1618.07 -1396.28l0 1660.94 -93.18 0 0 -1510.37 -1078.47 1510.37 -144.55 0 0 -1660.94 94.58 0 0 1546.86 1103.29 -1546.86 118.33 0zm579.29 0c85.03,0 157.65,30.11 218.23,90.34 60.59,60.23 91.06,132.87 91.06,218.26 0,85.73 -43.92,165.45 -132.14,239.5 77.58,15.94 150.57,61.65 219.3,137.11 110.55,111.6 165.82,245.89 165.82,403.89 0,156.96 -55.27,293 -165.82,407.81 -103.1,106.64 -226.39,160.84 -369.53,162.97l0 1.06 -321.7 0 0 -1660.94 294.78 0zm-201.59 617.89l0 949.51 228.51 0 0 1.07c115.5,-7.45 215.07,-54.91 298.68,-142.07 92.12,-94.96 138.17,-207.26 138.17,-337.3 0,-130.02 -46.05,-241.26 -138.17,-333.38 -91.77,-91.76 -203.01,-137.83 -333.05,-137.83l-194.14 0zm0 -524.36l0 424.46 225.32 0c51.73,-4.61 96.02,-24.09 132.85,-58.11 42.17,-38.62 63.43,-89.28 63.43,-151.28 0,-62.36 -21.26,-113.73 -63.43,-154.13 -42.15,-40.75 -94.58,-60.94 -156.58,-60.94l-201.59 0zm1839.51 -117.27c235.25,0 435.78,83.26 602.29,249.79 166.53,166.16 249.79,367.04 249.79,602.29 0,235.25 -83.26,436.14 -249.79,602.67 -166.51,166.51 -367.04,249.77 -602.29,249.77 -235.61,0 -436.14,-83.26 -602.67,-249.77 -166.51,-166.53 -249.77,-367.42 -249.77,-602.67 0,-235.25 83.26,-436.13 249.77,-602.29 166.53,-166.53 367.06,-249.79 602.67,-249.79zm0 95.67c-209.04,0 -387.6,73.68 -535.34,221.42 -147.75,147.74 -221.45,326.31 -221.45,534.99 0,209.04 73.7,387.6 221.45,535.7 147.74,148.1 326.3,222.15 535.34,222.15 208.68,0 387.25,-74.05 534.99,-222.15 147.74,-148.1 221.43,-326.66 221.43,-535.7 0,-208.68 -73.69,-387.25 -221.43,-534.99 -147.74,-147.74 -326.31,-221.42 -534.99,-221.42zm1179.08 1417.89c25.51,0 47.49,8.85 65.9,26.93 18.07,18.06 27.28,39.68 27.28,65.19 0,26.57 -9.21,48.53 -27.28,66.59 -18.41,18.08 -40.39,26.95 -65.9,26.95 -25.86,0 -47.82,-8.87 -65.89,-26.95 -18.43,-18.06 -27.65,-40.02 -27.65,-66.59 0,-25.51 9.22,-47.13 27.65,-65.19 18.07,-18.08 40.03,-26.93 65.89,-26.93z"/>
   <path class="fil1" d="M11394.21 2465.8c38.96,0 71.29,14.11 96.99,42.25 23.26,25.87 34.85,56.46 34.85,91.7 0,35.25 -12.3,66.15 -36.9,92.49 -24.68,26.41 -56.3,39.67 -94.94,39.67 -38.86,0 -70.48,-13.26 -95.08,-39.67 -24.6,-26.34 -36.82,-57.24 -36.82,-92.49 0,-35.08 11.59,-65.6 34.85,-91.46 25.7,-28.29 58.03,-42.49 97.05,-42.49zm0 31.85c-26.96,0 -50.15,10.01 -69.54,30.04 -19.39,20.03 -29.09,44.23 -29.09,72.54 0,18.29 4.42,35.48 13.24,51.4 8.83,15.94 20.81,28.15 35.95,36.75 15.07,8.52 31.55,12.78 49.44,12.78 18.15,0 34.7,-4.26 49.75,-12.78 14.98,-8.6 26.89,-20.81 35.72,-36.75 8.76,-15.92 13.17,-33.11 13.17,-51.4 0,-28.31 -9.7,-52.51 -29.18,-72.54 -19.39,-20.03 -42.57,-30.04 -69.46,-30.04zm157.77 -25.38l166.51 0 0 28.15 -66.77 0 0 225.25 -33.04 0 0 -225.25 -66.7 0 0 -28.15zm342.74 -89.18l68.12 0c39.26,0 65.67,1.74 79.25,5.12 19.71,4.9 35.72,14.82 48.02,29.73 12.28,14.98 18.43,33.82 18.43,56.61 0,22.62 -5.99,41.39 -18.13,56.3 -12.05,14.82 -28.7,24.83 -49.99,29.88 -15.52,3.71 -44.54,5.52 -87.04,5.52l-24.52 0 0 159.42 -34.14 0 0 -342.58zm34.14 33.27l0 116.37 58.19 0.71c23.26,0 40.36,-2.13 51.18,-6.29 10.86,-4.28 19.39,-11.21 25.7,-20.83 6.22,-9.61 9.3,-20.17 9.3,-31.77 0,-11.68 -3.08,-22.31 -9.3,-31.85 -6.31,-9.55 -14.52,-16.32 -24.6,-20.35 -10.18,-4.02 -26.81,-5.99 -49.92,-5.99l-60.55 0zm405.19 -42.03c51.72,0 95.01,17.27 129.92,51.96 34.85,34.62 52.28,77.28 52.28,127.98 0,50.05 -17.43,92.56 -52.19,127.48 -34.77,35 -77.19,52.43 -127.27,52.43 -50.85,0 -93.73,-17.34 -128.66,-52.03 -34.92,-34.77 -52.44,-76.87 -52.44,-126.31 0,-32.81 7.96,-63.24 23.81,-91.46 15.85,-28.15 37.54,-50.23 65.14,-66.15 27.51,-15.94 57.31,-23.9 89.41,-23.9zm1.33 33.66c-25.23,0 -49.19,6.63 -71.9,19.8 -22.7,13.17 -40.45,30.99 -53.07,53.38 -12.62,22.4 -18.93,47.3 -18.93,74.67 0,40.68 14.04,75.05 42.19,103.04 28.07,28.08 61.98,42.03 101.71,42.03 26.5,0 51.1,-6.45 73.72,-19.39 22.63,-12.93 40.29,-30.51 52.91,-52.75 12.62,-22.23 18.93,-47.07 18.93,-74.5 0,-27.12 -6.31,-51.66 -18.93,-73.73 -12.62,-21.99 -30.44,-39.58 -53.37,-52.75 -22.96,-13.17 -47.4,-19.8 -73.26,-19.8zm574 38.88l-27.19 20.27c-14.82,-19.41 -32.65,-34.06 -53.53,-44.01 -20.83,-9.92 -43.77,-14.89 -68.69,-14.89 -27.44,0 -52.75,6.54 -76,19.62 -23.26,13.1 -41.32,30.76 -54.17,52.84 -12.85,22.07 -19.32,46.99 -19.32,74.75 0,41.71 14.35,76.56 42.98,104.46 28.61,27.99 64.73,41.96 108.32,41.96 48.11,0 88.17,-18.78 120.41,-56.39l27.19 20.58c-17.1,21.7 -38.39,38.48 -63.94,50.39 -25.54,11.83 -54.08,17.73 -85.47,17.73 -60.07,0 -107.47,-19.94 -142.07,-59.84 -28.94,-33.66 -43.44,-74.34 -43.44,-121.9 0,-50.06 17.58,-92.24 52.82,-126.61 35.17,-34.3 79.16,-51.5 131.98,-51.5 32.02,0 60.96,6.31 86.73,19.01 25.79,12.78 46.92,30.59 63.39,53.53zm386.42 0l-27.2 20.27c-14.81,-19.41 -32.65,-34.06 -53.53,-44.01 -20.82,-9.92 -43.76,-14.89 -68.68,-14.89 -27.44,0 -52.75,6.54 -76.01,19.62 -23.26,13.1 -41.32,30.76 -54.17,52.84 -12.85,22.07 -19.32,46.99 -19.32,74.75 0,41.71 14.36,76.56 42.99,104.46 28.6,27.99 64.73,41.96 108.32,41.96 48.1,0 88.16,-18.78 120.4,-56.39l27.2 20.58c-17.11,21.7 -38.4,38.48 -63.94,50.39 -25.54,11.83 -54.08,17.73 -85.47,17.73 -60.07,0 -107.47,-19.94 -142.07,-59.84 -28.95,-33.66 -43.45,-74.34 -43.45,-121.9 0,-50.06 17.59,-92.24 52.82,-126.61 35.17,-34.3 79.17,-51.5 131.99,-51.5 32.01,0 60.96,6.31 86.73,19.01 25.79,12.78 46.92,30.59 63.39,53.53zm100.92 89.17l60.08 0c8.59,-54.87 30.36,-95.47 65.28,-121.97 34.85,-26.5 72.14,-39.74 111.88,-39.74 51.72,0 95.17,17.27 130.27,51.96 35.15,34.62 52.66,77.28 52.66,127.98 0,49.89 -17.35,92.33 -52.04,127.41 -34.76,35 -77.36,52.5 -127.89,52.5 -46.35,0 -86.64,-14.82 -120.94,-44.55 -34.23,-29.72 -54.01,-70.31 -59.22,-121.73l-60.08 0 0 157.77 -34.14 0 0 -342.58 34.14 0 0 152.95zm384.61 18.23c0,-42.51 -14.59,-77.59 -43.92,-105.19 -29.25,-27.67 -63.07,-41.48 -101.64,-41.48 -38.15,0 -71.74,14.04 -100.68,42.12 -28.93,28.15 -43.45,63.46 -43.45,106.12 0,41.62 14.36,76.17 42.97,103.77 28.63,27.58 62.38,41.3 101.16,41.3 40.38,0 74.75,-13.88 103.06,-41.62 28.3,-27.83 42.5,-62.84 42.5,-105.02zm104.39 -171.18l67.73 0c27.04,0 47.94,3.23 62.6,9.7 14.59,6.47 26.09,16.39 34.53,29.79 8.37,13.42 12.55,28.15 12.55,44.4 0,15.21 -3.7,29.09 -11.2,41.55 -7.5,12.46 -18.45,22.55 -32.88,30.28 17.97,6.15 31.78,13.24 41.32,21.36 9.53,8.04 17.03,17.9 22.38,29.42 5.44,11.58 8.12,24.13 8.12,37.69 0,27.51 -10.08,50.85 -30.27,69.85 -20.18,19 -47.15,28.54 -80.81,28.54l-94.07 0 0 -342.58zm33.52 33.5l0 109.69 19.62 0c23.73,0 41.16,-2.22 52.36,-6.63 11.11,-4.51 19.94,-11.44 26.48,-20.97 6.56,-9.47 9.86,-20.03 9.86,-31.7 0,-15.77 -5.43,-28.07 -16.4,-36.99 -10.95,-8.9 -28.31,-13.4 -52.18,-13.4l-39.74 0zm0 144.14l0 131.44 42.48 0c24.93,0 43.22,-2.45 54.88,-7.43 11.59,-4.87 20.97,-12.53 28.08,-22.85 7.09,-10.33 10.63,-21.6 10.63,-33.9 0,-15.14 -4.96,-28.4 -14.89,-39.75 -9.94,-11.43 -23.66,-19.23 -41.01,-23.34 -11.74,-2.75 -32,-4.17 -60.78,-4.17l-19.39 0zm231.17 -177.64l196.42 0 0 33.75 -162.19 0 0 107.15 160.77 0 0 33.27 -160.77 0 0 134.43 160.77 0 0 33.98 -195 0 0 -342.58zm535.29 343.06l-37.45 0 -113.39 -264.54 -115.5 264.54 -37.22 0 149.26 -342.35 7.09 0 147.21 342.35zm324.77 -0.48l-35.65 0 0 -262.64 -225.41 262.64 -7.89 0 0 -342.58 34.23 0 0 267.05 226.83 -267.05 7.89 0 0 342.58zm69.07 -342.58l68.12 0c39.27,0 65.68,1.74 79.25,5.12 19.71,4.9 35.72,14.82 48.02,29.73 12.29,14.98 18.44,33.82 18.44,56.61 0,22.62 -5.99,41.39 -18.14,56.3 -12.05,14.82 -28.69,24.83 -49.98,29.88 -15.53,3.71 -44.55,5.52 -87.05,5.52l-24.52 0 0 159.42 -34.14 0 0 -342.58zm34.14 33.27l0 116.37 58.2 0.71c23.25,0 40.36,-2.13 51.17,-6.29 10.87,-4.28 19.39,-11.21 25.7,-20.83 6.22,-9.61 9.31,-20.17 9.31,-31.77 0,-11.68 -3.09,-22.31 -9.31,-31.85 -6.31,-9.55 -14.52,-16.32 -24.6,-20.35 -10.18,-4.02 -26.8,-5.99 -49.92,-5.99l-60.55 0zm216.5 0l0 -33.27 187.98 0 0 33.27 -76.64 0 0 309.31 -34.92 0 0 -309.31 -76.42 0zm399.22 -42.03c51.72,0 95,17.27 129.92,51.96 34.85,34.62 52.28,77.28 52.28,127.98 0,50.05 -17.43,92.56 -52.19,127.48 -34.78,35 -77.19,52.43 -127.27,52.43 -50.85,0 -93.73,-17.34 -128.67,-52.03 -34.92,-34.77 -52.43,-76.87 -52.43,-126.31 0,-32.81 7.96,-63.24 23.81,-91.46 15.84,-28.15 37.54,-50.23 65.14,-66.15 27.51,-15.94 57.3,-23.9 89.41,-23.9zm1.32 33.66c-25.22,0 -49.18,6.63 -71.89,19.8 -22.71,13.17 -40.45,30.99 -53.07,53.38 -12.62,22.4 -18.93,47.3 -18.93,74.67 0,40.68 14.04,75.05 42.19,103.04 28.07,28.08 61.98,42.03 101.7,42.03 26.5,0 51.11,-6.45 73.72,-19.39 22.64,-12.93 40.29,-30.51 52.92,-52.75 12.62,-22.23 18.93,-47.07 18.93,-74.5 0,-27.12 -6.31,-51.66 -18.93,-73.73 -12.63,-21.99 -30.44,-39.58 -53.38,-52.75 -22.95,-13.17 -47.39,-19.8 -73.26,-19.8zm248.85 -24.9l68.12 0c39.26,0 65.67,1.74 79.25,5.12 19.71,4.9 35.72,14.82 48.02,29.73 12.28,14.98 18.43,33.82 18.43,56.61 0,22.62 -5.99,41.39 -18.13,56.3 -12.05,14.82 -28.7,24.83 -49.98,29.88 -15.53,3.71 -44.55,5.52 -87.05,5.52l-24.52 0 0 159.42 -34.14 0 0 -342.58zm34.14 33.27l0 116.37 58.19 0.71c23.26,0 40.37,-2.13 51.18,-6.29 10.86,-4.28 19.39,-11.21 25.7,-20.83 6.22,-9.61 9.31,-20.17 9.31,-31.77 0,-11.68 -3.09,-22.31 -9.31,-31.85 -6.31,-9.55 -14.52,-16.32 -24.6,-20.35 -10.18,-4.02 -26.8,-5.99 -49.92,-5.99l-60.55 0zm278.1 309.31l-34.14 0 0 -342.58 171.56 0 0 33.75 -137.42 0 0 308.83z"/>
  </g>
 </g>
</svg>
