<svg width="28" height="26" viewBox="0 0 28 26" fill="none" xmlns="http://www.w3.org/2000/svg">
<path fill-rule="evenodd" clip-rule="evenodd" d="M24.7534 10.2288C25.7673 10.8371 27.0381 11.6483 27.0381 13.0002C27.0381 14.3521 25.7673 15.1632 24.7534 15.6634C24.4385 15.8413 24.1359 16.04 23.8476 16.2583C23.9488 16.6244 24.0799 16.9816 24.2397 17.3263C24.2512 17.3542 24.2628 17.3824 24.2745 17.4107C24.7149 18.4762 25.2461 19.7613 24.456 20.8412C23.6448 21.9498 22.1983 21.8281 21.0221 21.7199C20.6486 21.6937 20.2736 21.6937 19.9 21.7199C19.813 21.9437 19.7032 22.3845 19.623 22.7063C19.616 22.7345 19.6092 22.7618 19.6026 22.788C19.5981 22.8081 19.5936 22.8282 19.5891 22.8485C19.335 23.9869 19.0247 25.3774 17.6964 25.7892C17.4912 25.8568 17.2771 25.8932 17.061 25.8973C16.0612 25.7617 15.1393 25.284 14.4519 24.5454C14.1591 24.2797 13.8474 24.0357 13.519 23.8154C13.1907 24.0357 12.879 24.2797 12.5862 24.5454C11.7075 25.3701 10.653 26.3164 9.34166 25.8973C8.03032 25.4782 7.69234 24.0452 7.43548 22.8961C7.42895 22.87 7.42215 22.8427 7.41513 22.8145C7.33494 22.4927 7.22507 22.0518 7.13806 21.8281C6.76449 21.8018 6.38954 21.8018 6.01598 21.8281C4.83982 21.9363 3.37976 22.0444 2.58214 20.9494C1.79427 19.8677 2.33862 18.5487 2.78202 17.4742L2.79844 17.4344C2.95816 17.0897 3.08928 16.7325 3.1905 16.3664C2.90217 16.1482 2.59957 15.9494 2.28472 15.7716C1.27079 15.1632 0 14.3521 0 13.0002C0 11.6483 1.27079 10.8371 2.28472 10.2693C2.59957 10.0914 2.90217 9.89272 3.1905 9.67448C3.08928 9.30834 2.95816 8.95114 2.79844 8.60647C2.7869 8.57849 2.77527 8.55034 2.76357 8.52204C2.32317 7.45654 1.79198 6.1714 2.58214 5.09152C3.39328 3.98296 4.83982 4.10463 6.01598 4.21278C6.38954 4.23908 6.76449 4.23908 7.13806 4.21278C7.22507 3.98904 7.33494 3.54814 7.41513 3.22636C7.42215 3.19818 7.42895 3.17091 7.43548 3.14478C7.69234 1.99566 8.07087 0.589678 9.34166 0.170587C10.61 -0.247701 11.7033 0.694212 12.5812 1.45055L12.5862 1.4549C12.879 1.72065 13.1907 1.96464 13.519 2.18493C13.8497 1.94299 14.1615 1.67635 14.4519 1.3873C14.4722 1.36974 14.4927 1.35208 14.5133 1.33434C15.3797 0.587075 16.4155 -0.306379 17.6964 0.102992C19.0078 0.522083 19.3458 1.9551 19.6026 3.10422C19.6092 3.13038 19.616 3.15768 19.623 3.18589C19.7032 3.50766 19.813 3.9485 19.9 4.17223C20.2736 4.19852 20.6486 4.19852 21.0221 4.17223C22.1983 4.06407 23.6583 3.95592 24.456 5.05096C25.2438 6.13261 24.6995 7.45167 24.2561 8.5261L24.2397 8.56592C24.0799 8.91058 23.9488 9.26778 23.8476 9.63392C24.1359 9.85217 24.4385 10.0509 24.7534 10.2288ZM13.2217 17.2181L18.6293 10.4585C19.018 9.87376 18.8944 9.08877 18.3447 8.65185C17.795 8.21493 17.0024 8.27155 16.5204 8.78217L12.0591 14.352L10.4233 12.7162C9.89316 12.1861 9.03368 12.1861 8.50357 12.7162C7.97346 13.2463 7.97346 14.1058 8.50357 14.6359L11.2074 17.3397C11.4625 17.5928 11.8079 17.7339 12.1672 17.7318H12.2483C12.631 17.7063 12.9848 17.5196 13.2217 17.2181Z" fill="#D3C48F"/>
</svg>
