<svg width="29" height="22" viewBox="0 0 29 22" fill="none" xmlns="http://www.w3.org/2000/svg">
<ellipse cx="14.417" cy="13.75" rx="1.375" ry="1.375" fill="#D3C48F"/>
<ellipse cx="19.9167" cy="13.75" rx="1.375" ry="1.375" fill="#D3C48F"/>
<path fill-rule="evenodd" clip-rule="evenodd" d="M4.79199 0H24.042C26.3202 0 28.167 1.84683 28.167 4.125V17.875C28.167 20.1532 26.3202 22 24.042 22H4.79199C2.51382 22 0.666992 20.1532 0.666992 17.875V4.125C0.666992 1.84683 2.51382 0 4.79199 0ZM17.1667 16.8024C17.9197 17.4869 18.8991 17.8689 19.9167 17.8749C22.1948 17.8749 24.0417 16.0281 24.0417 13.7499C24.0417 11.4717 22.1948 9.62492 19.9167 9.62492C18.8991 9.63098 17.9197 10.013 17.1667 10.6974C16.4137 10.013 15.4342 9.63098 14.4167 9.62492C12.1385 9.62492 10.2917 11.4717 10.2917 13.7499C10.2917 16.0281 12.1385 17.8749 14.4167 17.8749C15.4342 17.8689 16.4137 17.4869 17.1667 16.8024Z" fill="#D3C48F"/>
</svg>
