<svg width="28" height="28" viewBox="0 0 28 28" fill="none" xmlns="http://www.w3.org/2000/svg">
<path fill-rule="evenodd" clip-rule="evenodd" d="M25.2052 9.29851C25.4613 9.78247 25.7918 10.2232 26.1847 10.6045C27.2001 11.4639 27.8493 12.6783 28 14C27.8505 15.2889 27.2267 16.476 26.25 17.3302C25.8571 17.7115 25.5266 18.1522 25.2705 18.6362C25.1081 19.1778 25.0375 19.7429 25.0616 20.3078C25.1707 21.6014 24.7779 22.8874 23.9646 23.8993C22.9527 24.7126 21.6667 25.1054 20.3731 24.9963C19.8082 24.9722 19.2431 25.0428 18.7015 25.2052C18.2197 25.4647 17.7796 25.7949 17.3955 26.1847C16.5421 27.2075 15.3245 27.8585 14 28C12.7084 27.8592 11.5183 27.2338 10.6698 26.25C10.2857 25.8602 9.84555 25.53 9.36381 25.2705C8.82215 25.1081 8.25713 25.0375 7.69216 25.0616C6.39856 25.1707 5.11257 24.7779 4.10075 23.9646C3.2874 22.9527 2.89459 21.6667 3.00373 20.3731C3.02784 19.8082 2.95722 19.2431 2.79478 18.7015C2.53874 18.2175 2.20821 17.7768 1.8153 17.3955C0.799939 16.5361 0.150697 15.3217 0 14C0.149502 12.7111 0.773323 11.524 1.75 10.6698C2.14291 10.2885 2.47344 9.84777 2.72948 9.36381C2.89192 8.82215 2.96254 8.25713 2.93843 7.69216C2.82929 6.39856 3.2221 5.11257 4.03545 4.10075C5.04727 3.2874 6.33326 2.89459 7.62687 3.00373C8.19184 3.02784 8.75686 2.95722 9.29851 2.79478C9.78025 2.53525 10.2204 2.20511 10.6045 1.8153C11.4579 0.792494 12.6755 0.14154 14 0C15.2916 0.140808 16.4817 0.766193 17.3302 1.75C17.7143 2.13981 18.1544 2.46996 18.6362 2.72948C19.1778 2.89192 19.7429 2.96254 20.3078 2.93843C21.6014 2.82929 22.8874 3.2221 23.8993 4.03545C24.7126 5.04727 25.1054 6.33327 24.9963 7.62687C24.9722 8.19184 25.0428 8.75686 25.2052 9.29851ZM10.1869 7.24804C8.5641 7.24804 7.24852 8.56362 7.24852 10.1865C7.24852 11.8093 8.5641 13.1249 10.1869 13.1249C11.8098 13.1249 13.1254 11.8093 13.1254 10.1865C13.1254 8.56362 11.8098 7.24804 10.1869 7.24804ZM10.5653 19.3285C10.322 19.5697 9.99372 19.7058 9.65111 19.7072C9.3069 19.6685 8.99216 19.4947 8.77611 19.224C8.26975 18.7146 8.26975 17.892 8.77611 17.3826L17.4347 8.77624C17.7127 8.30688 18.2531 8.05973 18.7899 8.15644C19.3268 8.25315 19.747 8.67334 19.8437 9.21019C19.9404 9.74704 19.6932 10.2874 19.2239 10.5654L10.5653 19.3285ZM14.8749 17.8657C14.8749 19.4885 16.1904 20.8041 17.8133 20.8041V20.7519C19.416 20.7521 20.7232 19.4681 20.7517 17.8657C20.7517 16.2428 19.4361 14.9272 17.8133 14.9272C16.1904 14.9272 14.8749 16.2428 14.8749 17.8657Z" fill="#D3C48F"/>
</svg>
