<svg width="19" height="19" viewBox="0 0 19 19" fill="none" xmlns="http://www.w3.org/2000/svg">
    <path d="M14.8986 13.8379C14.6057 13.545 14.1308 13.545 13.8379 13.8379C13.545 14.1308 13.545 14.6056 13.8379 14.8985L14.8986 13.8379ZM17.7197 18.7803C18.0126 19.0732 18.4875 19.0732 18.7804 18.7803C19.0733 18.4874 19.0733 18.0126 18.7804 17.7197L17.7197 18.7803ZM8.77711 17.3041C13.4865 17.3041 17.3042 13.4864 17.3042 8.77705H15.8042C15.8042 12.658 12.658 15.8041 8.77711 15.8041V17.3041ZM17.3042 8.77705C17.3042 4.06771 13.4865 0.25 8.77711 0.25V1.75C12.658 1.75 15.8042 4.89614 15.8042 8.77705H17.3042ZM8.77711 0.25C4.06777 0.25 0.250061 4.06771 0.250061 8.77705H1.75006C1.75006 4.89614 4.8962 1.75 8.77711 1.75V0.25ZM0.250061 8.77705C0.250061 13.4864 4.06777 17.3041 8.77711 17.3041V15.8041C4.8962 15.8041 1.75006 12.658 1.75006 8.77705H0.250061ZM13.8379 14.8985L17.7197 18.7803L18.7804 17.7197L14.8986 13.8379L13.8379 14.8985Z" fill="#1D1D1D"></path>
</svg>